# xmcd
#
# Track frame offsets:
#	150
#	34677
#	70194
#	95343
#	117445
#	146348
#	178969
#	198195
#	224568
#	256593
#	280315
#
# Disc length: 3928 seconds
#
# Revision: 0
# Processed by: cddbd v1.5.2PL0 Copyright (c) Steve Scherf et al.
# Submitted via: EasyCDDAExtractor 16.0.6.1
#
DISCID=a20f560b
DTITLE=Βυζ. χορός των Τρικάλων υπό Παναγ. Καλαμπάκα - Καλογερικά
DYEAR=1999
DGENRE=Βυζ. εκκλησιαστική
TTITLE0=Χορός Ι. Μ. Σίμωνος Πέτρας - Δίψα Θεού [πλ. α']
TTITLE1=Βυζ. χορός των Τρικάλων υπό Παναγ. Καλαμπάκα - Το αλφαβητάρι του μοναχ
TTITLE1=ού [στίχ. κ παραλλ. Π. Καλαμπάκα, πλ. α']
TTITLE2=Βυζ. χορός των Τρικάλων υπό Παναγ. Καλαμπάκα - Χαίρε Παρθένε Πάνσεμνε 
TTITLE2=[Αγίου Νεκταρίου, πλ. β']
TTITLE3=Βυζ. χορός των Τρικάλων υπό Παναγ. Καλαμπάκα - Την Θεοπαίδα Μαριάμ [Αγ
TTITLE3=ίου Νεκταρίου, πλ. δ']
TTITLE4=Βυζ. χορός των Τρικάλων υπό Παναγ. Καλαμπάκα - Οσιακόν [ποίημα Αγ. Συμ
TTITLE4=εών του Νέου Θεολόγου, πλ. α']
TTITLE5=Βυζ. χορός των Τρικάλων υπό Παναγ. Καλαμπάκα - Χαίρε Κεχαριτωμένη [Αγί
TTITLE5=ου Νεκταρίου, πλ. δ', πλ. α']
TTITLE6=Βυζ. χορός των Τρικάλων υπό Παναγ. Καλαμπάκα - Ανυμνώ μεγαλύνω Σε [Αγί
TTITLE6=ου Νεκταρίου, πλ. δ']
TTITLE7=Βυζ. χορός των Τρικάλων υπό Παναγ. Καλαμπάκα - Χαίρε Μαριάμ [Π. Καλαμπ
TTITLE7=άκα, ήχος βαρύς κ πρώτος]
TTITLE8=Βυζ. χορός των Τρικάλων υπό Παναγ. Καλαμπάκα - Ένας είν' ο Κύριος [λαϊ
TTITLE8=κόν άσμα,, πλ. α' εναρμόνιος]
TTITLE9=Βυζ. χορός των Τρικάλων υπό Παναγ. Καλαμπάκα - Αειπάρθενε Αγνή [Αγίου 
TTITLE9=Νεκταρίου, πλ. δ']
TTITLE10=Βυζ. χορός των Τρικάλων υπό Παναγ. Καλαμπάκα - Άναρχος Θεός [κάλαντα,
TTITLE10=ήχος πρωτόβαρυς]
EXTD=
EXTT0=
EXTT1=
EXTT2=
EXTT3=
EXTT4=
EXTT5=
EXTT6=
EXTT7=
EXTT8=
EXTT9=
EXTT10=
PLAYORDER=
